#N canvas 200 100 600 500 10;
#X obj 50 50 toggle;
#X obj 50 80 sel 1 0;
#X obj 50 110 metro 300;
#X obj 50 140 t b b b b b b b b b b b b b;
#X obj 50 170 40;
#X obj 80 170 41;
#X obj 110 170 43;
#X obj 140 170 43;
#X obj 170 170 40;
#X obj 200 170 41;
#X obj 230 170 43;
#X obj 260 170 43;
#X obj 290 170 40;
#X obj 320 170 41;
#X obj 350 170 43;
#X obj 380 170 43;
#X obj 410 170 43;
#X obj 440 170 41;
#X obj 470 170 40;
#X obj 50 200 mtof;
#X obj 50 230 square~;
#X obj 50 260 *~ 0.2;
#X obj 50 290 dac~;
#X obj 300 50 bang;
#X obj 300 80 random 3;
#X obj 300 110 sel 0 1 2;
#X obj 300 140 67;
#X obj 330 140 71;
#X obj 360 140 74;
#X obj 300 170 mtof;
#X obj 300 200 saw~;
#X obj 300 230 *~ 0.3;
#X obj 300 260 dac~;
#X obj 400 50 bang;
#X obj 400 80 noise~;
#X obj 400 110 lop~ 500;
#X obj 400 140 *~ 0.2;
#X obj 400 170 dac~;
#X connect 0 0 1 0;
#X connect 1 0 2 0;
#X connect 1 1 2 0;
#X connect 2 0 3 0;
#X connect 3 0 4 0;
#X connect 3 1 5 0;
#X connect 3 2 6 0;
#X connect 3 3 7 0;
#X connect 3 4 8 0;
#X connect 3 5 9 0;
#X connect 3 6 10 0;
#X connect 3 7 11 0;
#X connect 3 8 12 0;
#X connect 3 9 13 0;
#X connect 3 10 14 0;
#X connect 3 11 15 0;
#X connect 3 12 16 0;
#X connect 3 13 17 0;
#X connect 3 14 18 0;
#X connect 4 0 19 0;
#X connect 5 0 19 0;
#X connect 6 0 19 0;
#X connect 7 0 19 0;
#X connect 8 0 19 0;
#X connect 9 0 19 0;
#X connect 10 0 19 0;
#X connect 11 0 19 0;
#X connect 12 0 19 0;
#X connect 13 0 19 0;
#X connect 14 0 19 0;
#X connect 15 0 19 0;
#X connect 16 0 19 0;
#X connect 17 0 19 0;
#X connect 18 0 19 0;
#X connect 19 0 20 0;
#X connect 20 0 21 0;
#X connect 21 0 22 0;
#X connect 23 0 24 0;
#X connect 24 0 25 0;
#X connect 25 0 26 0;
#X connect 25 1 27 0;
#X connect 25 2 28 0;
#X connect 26 0 29 0;
#X connect 27 0 29 0;
#X connect 28 0 29 0;
#X connect 29 0 30 0;
#X connect 30 0 31 0;
#X connect 31 0 32 0;
#X connect 33 0 34 0;
#X connect 34 0 35 0;
#X connect 35 0 36 0;
#X connect 36 0 37 0;
