#N canvas 500 100 800 600 10;
#X obj 50 50 loadbang;
#X obj 50 80 open my_audio.wav\, bang;
#X obj 50 110 soundfiler;
#X obj 50 140 table mySound 44100;

#X obj 250 50 phasor~ 1;
#X obj 250 80 *~ 44100;
#X obj 250 110 tabread4~ mySound;

#X obj 400 50 noise~;
#X obj 400 80 *~ 0.3;
#X obj 400 110 delwrite~ delay 100;
#X obj 400 140 vd~ delay;
#X obj 400 170 *~ 0.99;

#X obj 600 50 osc~ 5;
#X obj 600 80 *~ 3;
#X obj 600 110 +~ 1;
#X obj 600 140 *~ 44100;

#X obj 250 140 bp~ 1200 5;
#X obj 250 170 lop~ 3000;

#X obj 50 200 random 200;
#X obj 50 230 - 100;
#X obj 50 260 + 44100;
#X obj 50 290 *~;

#X obj 250 200 freeverb~ 90 60;
#X obj 250 230 dac~;

#X connect 0 0 1 0;
#X connect 1 0 2 0;
#X connect 2 0 3 0;

#X connect 4 0 5 0;
#X connect 5 0 6 0;
#X connect 6 0 16 0;
#X connect 16 0 17 0;
#X connect 17 0 22 0;
#X connect 22 0 23 0;

#X connect 7 0 8 0;
#X connect 8 0 9 0;
#X connect 9 0 10 0;
#X connect 10 0 11 0;
#X connect 11 0 16 0;

#X connect 12 0 13 0;
#X connect 13 0 14 0;
#X connect 14 0 15 0;
#X connect 15 0 5 0;

#X connect 18 0 19 0;
#X connect 19 0 20 0;
#X connect 20 0 21 0;
#X connect 21 0 5 0;
