#N canvas 0 0 600 400 10;
#X obj 50 50 noise~;
#X obj 50 80 *~ 0.5;
#X obj 50 110 delwrite~ karplus 100;
#X obj 150 110 delread4~ karplus 100;
#X obj 150 140 *~ 0.99;
#X obj 150 170 lop~ 3000;
#X obj 150 200 dac~;
#X obj 50 20 bang~;
#X obj 300 50 mtof;
#X obj 300 80 sig~;
#X obj 300 110 phasor~;
#X obj 300 140 *~ 2;
#X obj 300 170 lop~ 500;
#X msg 300 20 60; # MIDI音高
#X connect 0 1;
#X connect 1 2;
#X connect 3 4;
#X connect 4 5;
#X connect 5 6;
#X connect 8 9;
#X connect 9 10;
#X connect 10 11;
#X connect 11 12;
#X connect 13 8;

