#N canvas 0 0 800 600 10;
#X obj 50 50 noise~;
#X obj 50 80 hip~ 500;
#X obj 50 110 lop~ 5000;
#X obj 50 140 phasor~ 2;
#X obj 50 170 +~;
#X obj 50 200 delwrite~ delBuff 200;
#X obj 250 50 mtof;
#X obj 250 80 expr 1000/$f1;
#X obj 250 110 delread4~ delBuff 200;
#X obj 250 140 bp~ 800 2;
#X obj 250 170 bp~ 1500 3;
#X obj 250 200 bp~ 2500 4;
#X obj 250 230 lop~ 1200;
#X obj 250 260 *~ 0.97;
#X obj 250 290 send~ fb;
#X obj 250 320 *~ 0.1;
#X obj 250 350 dac~;
#X obj 450 50 osc~;
#X obj 450 80 *~ 0.3;
#X obj 500 50 osc~;
#X obj 500 80 *~ 0.2;
#X obj 550 50 osc~;
#X obj 550 80 *~ 0.1;
#X obj 600 50 osc~;
#X obj 600 80 *~ 0.05;
#X obj 450 110 +~;
#X obj 500 110 +~;
#X obj 550 110 +~;
#X obj 600 110 +~;
#X obj 450 140 lop~ 1500;
#X obj 450 170 *~ 0.2;
#X obj 450 200 dac~;
#X obj 350 50 osc~ 5;
#X obj 350 80 *~ 0.02;
#X obj 350 110 +~;
#X obj 350 140 mtof;
#X obj 350 170 expr 1000/$f1;
#X obj 350 200 delread4~ delBuff;
#X connect 0 1;
#X connect 1 2;
#X connect 2 3;
#X connect 3 4;
#X connect 4 5;
#X connect 6 7;
#X connect 7 8;
#X connect 8 9;
#X connect 9 10;
#X connect 10 11;
#X connect 11 12;
#X connect 12 13;
#X connect 13 14;
#X connect 13 15;
#X connect 15 16;
#X connect 17 18;
#X connect 19 20;
#X connect 21 22;
#X connect 23 24;
#X connect 18 25;
#X connect 20 26;
#X connect 22 27;
#X connect 24 28;
#X connect 25 29;
#X connect 29 30;
#X connect 30 31;
#X connect 32 33;
#X connect 33 34;
#X connect 34 35;
#X connect 35 36;
#X connect 36 37;
#X connect 37 38;
